<?xml version="1.0" encoding="utf-8"?>
<!-- Generator: Adobe Illustrator 27.1.1, SVG Export Plug-In . SVG Version: 6.00 Build 0)  -->
<svg version="1.1" id="Layer_1" xmlns="http://www.w3.org/2000/svg" xmlns:xlink="http://www.w3.org/1999/xlink" x="0px" y="0px"
	 viewBox="0 0 171.93 59.55" style="enable-background:new 0 0 171.93 59.55;" xml:space="preserve">
<style type="text/css">
	.st0{fill:none;}
	.st1{fill:#F26522;}
	.st2{font-family:'AvenirNext-UltraLight';}
	.st3{font-size:36px;}
	.st4{fill:none;stroke:#808285;stroke-width:4;stroke-miterlimit:10;}
	.st5{fill:#808285;}
	.st6{fill:#00AEEF;}
</style>
<rect x="53.32" y="18.03" class="st0" width="110.09" height="43.99"/>
<text transform="matrix(1 0 0 1 53.3174 48.7782)" class="st1 st2 st3">Philote</text>
<circle class="st4" cx="31.45" cy="28.78" r="18"/>
<g>
	<path class="st5" d="M46.39,19.08c9.13-3.94,18.69-6.75,28.4-8.55c9.71-1.8,19.59-2.59,29.42-2.43c9.84,0.17,19.65,1.3,29.22,3.41
		c9.58,2.11,18.93,5.22,27.77,9.39c-8.98-3.87-18.39-6.64-27.97-8.41c-9.58-1.77-19.32-2.55-29.03-2.39
		c-9.71,0.17-19.38,1.29-28.83,3.37c-9.44,2.09-18.65,5.15-27.34,9.26L46.39,19.08z"/>
</g>
<circle class="st6" cx="31.45" cy="28.78" r="12"/>
<circle class="st6" cx="84.46" cy="10.28" r="2.5"/>
<circle class="st6" cx="102.66" cy="9.16" r="2"/>
<circle class="st6" cx="121.54" cy="10.08" r="1.5"/>
<circle class="st6" cx="139" cy="13.22" r="1"/>
<circle class="st6" cx="153.47" cy="17.73" r="0.5"/>
<circle class="st6" cx="63.75" cy="15.05" r="3"/>
</svg>
