<?xml version="1.0" encoding="utf-8"?>
<!-- Generator: Adobe Illustrator 27.9.0, SVG Export Plug-In . SVG Version: 6.00 Build 0)  -->
<svg version="1.1" id="Layer_1" xmlns="http://www.w3.org/2000/svg" xmlns:xlink="http://www.w3.org/1999/xlink" x="0px" y="0px"
	 viewBox="0 0 171.93 59.55" style="enable-background:new 0 0 171.93 59.55;" xml:space="preserve">
<style type="text/css">
	.st0{fill:#F26522;}
	.st1{fill:none;stroke:#808285;stroke-width:4;stroke-miterlimit:10;}
	.st2{fill:#808285;}
	.st3{fill:#00AEEF;}
</style>
<g>
	<path class="st0" d="M71.93,29.63c0,1.08-0.2,2.03-0.59,2.86c-0.4,0.83-0.93,1.52-1.6,2.07c-0.67,0.55-1.46,0.97-2.36,1.26
		s-1.85,0.43-2.86,0.43h-6.59v12.53h-0.79V23.29h6.91c0.91,0,1.84,0.1,2.77,0.31c0.94,0.2,1.78,0.55,2.54,1.03s1.37,1.13,1.85,1.94
		C71.69,27.38,71.93,28.4,71.93,29.63z M71.14,29.63c0-1.08-0.2-1.98-0.61-2.7c-0.41-0.72-0.94-1.3-1.58-1.73s-1.37-0.74-2.18-0.94
		c-0.8-0.19-1.6-0.29-2.39-0.29h-6.44v11.59h6.62c0.79,0,1.58-0.11,2.38-0.32c0.79-0.22,1.5-0.56,2.12-1.04
		c0.62-0.48,1.13-1.1,1.51-1.85C70.94,31.59,71.14,30.68,71.14,29.63z"/>
	<path class="st0" d="M78.45,36.57c0.24-0.77,0.58-1.45,1.03-2.05c0.44-0.6,0.95-1.11,1.53-1.53c0.58-0.42,1.2-0.74,1.87-0.95
		c0.67-0.22,1.37-0.32,2.09-0.32c1.15,0,2.11,0.2,2.88,0.61c0.77,0.41,1.38,0.95,1.84,1.62c0.46,0.67,0.78,1.43,0.97,2.27
		c0.19,0.84,0.29,1.69,0.29,2.56v10.01h-0.79v-9.94c0-0.67-0.07-1.39-0.22-2.16c-0.14-0.77-0.41-1.46-0.81-2.09
		c-0.4-0.62-0.93-1.15-1.6-1.57c-0.67-0.42-1.52-0.63-2.56-0.63c-0.91,0-1.77,0.19-2.57,0.56c-0.8,0.37-1.5,0.91-2.09,1.6
		c-0.59,0.7-1.06,1.54-1.4,2.54c-0.35,1-0.52,2.13-0.52,3.4v8.28h-0.79V21.56h0.79v15.01H78.45z"/>
	<path class="st0" d="M98.46,25.99c-0.22,0-0.41-0.08-0.58-0.25c-0.17-0.17-0.25-0.4-0.25-0.68c0-0.26,0.08-0.48,0.25-0.65
		c0.17-0.17,0.36-0.25,0.58-0.25c0.22,0,0.41,0.08,0.58,0.25c0.17,0.17,0.25,0.38,0.25,0.65c0,0.29-0.09,0.52-0.27,0.68
		C98.84,25.91,98.65,25.99,98.46,25.99z M98.06,48.78V32.22h0.79v16.56H98.06z"/>
	<path class="st0" d="M106.2,48.78V21.56h0.79v27.22H106.2z"/>
	<path class="st0" d="M130.21,40.46c0,1.3-0.21,2.48-0.63,3.56c-0.42,1.08-1.01,2.01-1.78,2.79c-0.77,0.78-1.69,1.39-2.75,1.82
		s-2.24,0.65-3.51,0.65c-1.27,0-2.44-0.22-3.49-0.65s-1.97-1.04-2.74-1.82c-0.77-0.78-1.36-1.71-1.78-2.79s-0.63-2.27-0.63-3.56
		s0.21-2.48,0.63-3.55s1.01-1.99,1.78-2.75c0.77-0.77,1.68-1.37,2.74-1.8c1.06-0.43,2.22-0.65,3.49-0.65c1.27,0,2.44,0.22,3.51,0.65
		c1.07,0.43,1.99,1.03,2.75,1.8c0.77,0.77,1.36,1.69,1.78,2.75C130,37.98,130.21,39.17,130.21,40.46z M129.42,40.46
		c0-1.1-0.18-2.15-0.54-3.13c-0.36-0.98-0.88-1.84-1.57-2.57c-0.68-0.73-1.51-1.31-2.48-1.73c-0.97-0.42-2.07-0.63-3.29-0.63
		s-2.32,0.21-3.28,0.63c-0.96,0.42-1.78,1-2.47,1.73c-0.68,0.73-1.21,1.59-1.57,2.57c-0.36,0.98-0.54,2.03-0.54,3.13
		c0,1.13,0.18,2.18,0.54,3.17c0.36,0.98,0.88,1.84,1.57,2.57c0.68,0.73,1.51,1.31,2.47,1.75c0.96,0.43,2.05,0.65,3.28,0.65
		s2.32-0.22,3.29-0.65c0.97-0.43,1.8-1.01,2.48-1.75c0.68-0.73,1.21-1.59,1.57-2.57C129.24,42.65,129.42,41.59,129.42,40.46z"/>
	<path class="st0" d="M141.48,49.1c-0.38,0.07-0.76,0.11-1.12,0.11c-1.3,0-2.22-0.37-2.77-1.1c-0.55-0.73-0.83-1.65-0.83-2.75V32.9
		h-3.6v-0.68h3.56v-4.86h0.79v4.86h4.86v0.68h-4.86v12.46c0,1.13,0.28,1.94,0.83,2.43c0.55,0.49,1.28,0.74,2.2,0.74
		c0.67,0,1.28-0.11,1.84-0.32l0.11,0.61C142.2,48.93,141.86,49.03,141.48,49.1z"/>
	<path class="st0" d="M146.41,40.32c0,1.01,0.15,2,0.45,2.99c0.3,0.98,0.76,1.87,1.37,2.65c0.61,0.78,1.39,1.41,2.32,1.89
		c0.94,0.48,2.04,0.72,3.31,0.72c1.3,0,2.45-0.26,3.46-0.77c1.01-0.52,1.88-1.27,2.63-2.25l0.58,0.5c-0.82,1.06-1.77,1.86-2.86,2.41
		c-1.09,0.55-2.36,0.83-3.8,0.83c-1.22,0-2.34-0.22-3.35-0.67c-1.01-0.44-1.88-1.06-2.61-1.85c-0.73-0.79-1.3-1.74-1.69-2.84
		s-0.59-2.3-0.59-3.6c0-1.25,0.2-2.4,0.61-3.46c0.41-1.06,0.97-1.97,1.68-2.74s1.55-1.36,2.51-1.78c0.96-0.42,2-0.63,3.1-0.63
		c1.3,0,2.43,0.23,3.39,0.68c0.96,0.46,1.76,1.06,2.4,1.8c0.64,0.74,1.11,1.59,1.43,2.54c0.31,0.95,0.47,1.91,0.47,2.9v0.68H146.41z
		 M160.42,39.63c-0.02-1.08-0.21-2.06-0.56-2.95c-0.35-0.89-0.82-1.65-1.42-2.29c-0.6-0.64-1.32-1.13-2.16-1.48
		c-0.84-0.35-1.78-0.52-2.81-0.52c-1.25,0-2.32,0.26-3.2,0.77c-0.89,0.52-1.61,1.15-2.18,1.91c-0.56,0.76-0.98,1.55-1.24,2.38
		c-0.26,0.83-0.4,1.55-0.4,2.18H160.42z"/>
</g>
<circle class="st1" cx="31.45" cy="28.78" r="18"/>
<g>
	<path class="st2" d="M46.39,19.08c36.24-15.33,79.13-14.7,114.81,1.82c-26.87-11.48-57.4-13.62-85.82-7.43
		c-9.44,2.09-18.65,5.15-27.34,9.26L46.39,19.08L46.39,19.08z"/>
</g>
<circle class="st3" cx="31.45" cy="28.78" r="12"/>
<circle class="st3" cx="84.46" cy="10.28" r="2.5"/>
<circle class="st3" cx="102.66" cy="9.16" r="2"/>
<circle class="st3" cx="121.54" cy="10.08" r="1.5"/>
<circle class="st3" cx="139" cy="13.22" r="1"/>
<circle class="st3" cx="153.47" cy="17.73" r="0.5"/>
<circle class="st3" cx="63.75" cy="15.05" r="3"/>
</svg>
